<svg width="800" height="600" viewBox="0 0 800 600" xmlns="http://www.w3.org/2000/svg">
  <defs>
    <linearGradient id="bg" x1="0" y1="0" x2="1" y2="1">
      <stop offset="0%" stop-color="#0e74ff"/>
      <stop offset="100%" stop-color="#003396"/>
    </linearGradient>
    <linearGradient id="lineGradient" gradientUnits="userSpaceOnUse" x1="0" y1="0" x2="120" y2="0" spreadMethod="repeat">
      <stop offset="0%" stop-color="#ffffff"/>
      <stop offset="50%" stop-color="#ff6b00"/>
      <stop offset="100%" stop-color="#ffffff"/>
    </linearGradient>
    <circle id="node" cx="0" cy="0" r="6" fill="#fff"/>
    <style>
      .moving-line {
        stroke-dasharray: 12 12;
        stroke-linecap: round;
        animation: dash 4s linear infinite;
      }

      @keyframes dash {
        to { stroke-dashoffset: -24; }
      }

      .node {
        animation: dot-color 4s linear infinite;
      }

      @keyframes dot-color {
        0%, 100% { fill: #fff; }
        10%, 20% { fill: #ff6b00; }
      }
    </style>
  </defs>
  <rect width="800" height="600" fill="url(#bg)"/>
  <g opacity="0.6" stroke="url(#lineGradient)" stroke-width="2" fill="none">
    <polyline class="moving-line" points="150,150 250,100 350,180 450,120 550,170"/>
    <polyline class="moving-line" points="200,300 300,260 400,330 500,280 600,340"/>
    <polyline class="moving-line" points="180,450 300,420 420,480 520,430 640,470"/>
  </g>
  <g opacity="0.9">
    <use class="node" href="#node" x="150" y="150" style="animation-delay:0s"/>
    <use class="node" href="#node" x="250" y="100" style="animation-delay:0.25s"/>
    <use class="node" href="#node" x="350" y="180" style="animation-delay:0.5s"/>
    <use class="node" href="#node" x="450" y="120" style="animation-delay:0.75s"/>
    <use class="node" href="#node" x="550" y="170" style="animation-delay:1s"/>

    <use class="node" href="#node" x="200" y="300" style="animation-delay:1.25s"/>
    <use class="node" href="#node" x="300" y="260" style="animation-delay:1.5s"/>
    <use class="node" href="#node" x="400" y="330" style="animation-delay:1.75s"/>
    <use class="node" href="#node" x="500" y="280" style="animation-delay:2s"/>
    <use class="node" href="#node" x="600" y="340" style="animation-delay:2.25s"/>

    <use class="node" href="#node" x="180" y="450" style="animation-delay:2.5s"/>
    <use class="node" href="#node" x="300" y="420" style="animation-delay:2.75s"/>
    <use class="node" href="#node" x="420" y="480" style="animation-delay:3s"/>
    <use class="node" href="#node" x="520" y="430" style="animation-delay:3.25s"/>
    <use class="node" href="#node" x="640" y="470" style="animation-delay:3.5s"/>
  </g>
</svg>
