<svg width="800" height="600" viewBox="0 0 800 600" xmlns="http://www.w3.org/2000/svg">
  <defs>
    <linearGradient id="bg" x1="0" y1="0" x2="1" y2="1">
      <stop offset="0%" stop-color="#0e74ff"/>
      <stop offset="100%" stop-color="#003396"/>
    </linearGradient>
    <circle id="node" cx="0" cy="0" r="6" fill="#fff"/>
    <style>
      .moving-line {
        stroke-dasharray: 12 12;
        animation: dash 4s linear infinite;
      }

      @keyframes dash {
        to { stroke-dashoffset: -24; }
      }
    </style>
  </defs>
  <rect width="800" height="600" fill="url(#bg)"/>
  <g opacity="0.6" stroke="#fff" stroke-width="2" fill="none">
    <polyline class="moving-line" points="150,150 250,100 350,180 450,120 550,170"/>
    <polyline class="moving-line" points="200,300 300,260 400,330 500,280 600,340"/>
    <polyline class="moving-line" points="180,450 300,420 420,480 520,430 640,470"/>
  </g>
  <g opacity="0.9">
    <use href="#node" x="150" y="150"/>
    <use href="#node" x="250" y="100"/>
    <use href="#node" x="350" y="180"/>
    <use href="#node" x="450" y="120"/>
    <use href="#node" x="550" y="170"/>

    <use href="#node" x="200" y="300"/>
    <use href="#node" x="300" y="260"/>
    <use href="#node" x="400" y="330"/>
    <use href="#node" x="500" y="280"/>
    <use href="#node" x="600" y="340"/>

    <use href="#node" x="180" y="450"/>
    <use href="#node" x="300" y="420"/>
    <use href="#node" x="420" y="480"/>
    <use href="#node" x="520" y="430"/>
    <use href="#node" x="640" y="470"/>
  </g>
</svg>
